<?xml version="1.0" encoding="UTF-8" standalone="no"?>
<svg width="177px" height="24px" viewBox="0 0 177 24" version="1.1" xmlns="http://www.w3.org/2000/svg" xmlns:xlink="http://www.w3.org/1999/xlink">
    <!-- Generator: Sketch 3.8.3 (29802) - http://www.bohemiancoding.com/sketch -->
    <title>cbs</title>
    <desc>Created with Sketch.</desc>
    <defs></defs>
    <g id="Page-1" stroke="none" stroke-width="1" fill="none" fill-rule="evenodd">
        <g id="NBC_News">
            <g id="cbs">
                <polyline id="Fill-2" fill="#ADADAD" points="134.822 1.585 144.803 23.384 149.181 14.455 153.558 23.384 163.363 1.585 158.373 1.585 153.12 13.491 151.194 9.464 154.871 1.672 150.23 1.584 149.179 4.473 147.779 1.584 143.313 1.584 146.902 9.288 145.063 13.403 139.46 1.585 134.82 1.585 134.822 1.585"></polyline>
                <polyline id="Fill-3" fill="#ADADAD" points="43.183 0.728 56.19 12.991 56.19 1.508 60.398 1.508 60.398 22.779 47.42 10.274 47.42 22.079 43.183 22.079 43.183 0.726 43.183 0.728"></polyline>
                <path d="M62.756,1.564 L71.635,1.564 C72.993,1.564 76.849,2.596 76.985,6.75 C77.094,9.844 74.543,11.285 74.543,11.285 C75.926,11.936 78.045,13.539 78.045,16.796 C78.045,19.973 75.249,22.308 72.857,22.308 L62.756,22.308 L62.756,1.562 L62.756,1.564 L62.756,1.564 Z M67.02,9.927 L70.251,9.927 C71.528,9.763 72.505,8.786 72.505,7.402 C72.505,5.935 71.228,5.121 70.17,5.039 L67.02,5.039 L67.02,9.927 L67.02,9.927 Z M67.046,18.969 L70.793,18.969 C71.744,18.887 73.371,18.073 73.371,16.2 C73.371,14.38 71.769,13.511 70.901,13.484 L67.044,13.484 L67.044,18.969 L67.046,18.969 L67.046,18.969 Z" id="Fill-4" fill="#ADADAD"></path>
                <path d="M94.119,6.004 C89.665,3.043 83.638,6.058 83.257,11.542 C83.094,18.196 89.664,20.938 94.119,18.059 L94.119,22.322 C86.244,25.256 79.021,19.716 78.994,11.679 C79.021,4.864 86.543,-1.164 94.119,1.849 L94.119,6.004" id="Fill-5" fill="#ADADAD"></path>
                <path d="M171.024,14.587 C164.744,10.401 165.246,10.845 164.786,10.121 C164.327,9.399 163.013,5.656 166.033,2.438 C169.053,-0.78 175.16,1.978 175.16,1.978 L175.16,6.115 C175.16,6.115 169.972,3.095 168.528,5.852 C167.084,8.61 172.47,10.251 172.47,10.251 C172.47,10.251 176.079,12.352 176.408,14.65 C176.736,16.948 176.474,21.544 172.797,22.398 C172.797,22.398 169.251,24.369 164.457,21.873 L164.524,17.212 C164.524,17.212 166.559,19.445 169.449,19.313 C172.339,19.181 173.191,16.031 171.025,14.587 L171.024,14.587" id="Fill-6" fill="#ADADAD"></path>
                <polyline id="Fill-7" fill="#ADADAD" points="122.238 1.416 122.238 22.296 133.663 22.296 133.73 18.817 126.753 18.817 126.753 13.826 133.73 13.826 133.73 9.952 126.753 9.952 126.753 5.29 133.73 5.29 133.73 1.416 122.238 1.416"></polyline>
                <polyline id="Fill-8" fill="#ADADAD" points="103.015 0.77 116.022 13.153 116.022 1.557 120.23 1.557 120.23 23.035 107.25 10.41 107.25 22.331 103.015 22.331 103.015 0.77"></polyline>
                <path d="M33.093,22.483 L4.595,22.459 C2.984,22.335 1.401,21.005 0.952,19.415 C0.473,17.825 0.938,16.184 1.989,15.025 C3.005,13.977 4.312,13.54 5.763,13.704 C4.398,12.775 3.824,11.237 4.021,9.589 C4.202,8.156 5.24,6.759 6.569,6.189 C8.087,5.506 10.003,5.877 11.194,7.027 C10.947,6.189 10.817,4.984 11.156,4.123 C11.563,2.764 12.884,1.554 14.226,1.27 C16.018,0.885 17.725,1.561 18.755,3.099 C18.951,3.387 19.067,3.715 19.22,4.019 C19.736,2.549 21.224,1.33 22.735,1.174 C24.295,0.973 25.769,1.642 26.748,2.956 C27.51,4.047 27.771,5.674 27.278,6.988 C28.468,5.97 30.181,5.599 31.64,6.164 C33.033,6.624 34.216,8.11 34.404,9.573 C34.616,11.193 34.063,12.611 32.837,13.659 C34.695,13.548 36.459,14.536 37.222,16.265 C37.889,17.774 37.694,19.794 36.562,21.02 C36.106,21.481 35.618,21.867 35.073,22.097 C34.474,22.364 33.806,22.483 33.093,22.483 Z" id="Fill-9" fill="#4B4B4B"></path>
                <path d="M32.056,13.704 L21.516,20.752 L25.066,12.315 L26.75,8.386 C27.431,7.117 28.717,6.307 30.119,6.284 C31.46,6.284 32.651,6.93 33.406,8.089 C34.183,9.247 34.227,11.142 33.45,12.315 C33.102,12.864 32.587,13.355 32.057,13.704 L32.056,13.704" id="Fill-10" fill="#727272"></path>
                <path d="M26.808,7.049 L21.596,19.371 L21.363,18.027 L19.796,7.927 C19.731,7.31 19.984,6.791 20.477,6.449 L21.226,6.004 C21.27,5.848 21.051,5.796 20.949,5.743 L19.483,5.729 C19.389,4.273 20.027,2.952 21.261,2.156 C22.219,1.533 23.679,1.369 24.746,1.874 C26.132,2.44 27.097,3.917 27.12,5.424 C27.113,5.981 27.017,6.553 26.808,7.052 L26.808,7.049" id="Fill-11" fill="#7E7E7E"></path>
                <path d="M16.799,19.415 L11.667,7.064 C11.116,5.741 11.349,4.003 12.293,2.934 C13.301,1.813 14.724,1.337 16.189,1.716 C17.431,2.02 18.591,3.209 18.898,4.479 C19.042,4.954 19.021,5.527 18.993,6.046 L16.8,19.415 L16.799,19.415" id="Fill-12" fill="#868686"></path>
                <path d="M5.83,13.258 C4.776,12.345 4.307,11.126 4.458,9.716 C4.611,8.289 5.736,6.893 7.078,6.463 C8.457,6.032 9.959,6.373 10.961,7.407 C11.382,7.809 11.643,8.284 11.861,8.774 L16.82,20.776 L5.83,13.261 L5.83,13.258" id="Fill-13" fill="#959595"></path>
                <path d="M4.704,22.027 C3.333,21.872 2.276,21.132 1.631,19.874 C0.978,18.605 1.147,16.804 2.026,15.678 C2.982,14.533 4.366,13.956 5.761,14.238 C6.33,14.33 6.805,14.574 7.254,14.856 L17.924,22.03 L4.704,22.027" id="Fill-14" fill="#ADADAD"></path>
                <path d="M33.671,22.027 C35.042,21.872 36.099,21.132 36.743,19.874 C37.397,18.605 37.226,16.804 36.349,15.678 C35.393,14.533 34.008,13.956 32.614,14.238 C32.045,14.33 31.57,14.574 31.121,14.856 L20.451,22.03 L33.669,22.027 L33.671,22.027" id="Fill-15" fill="#585858"></path>
            </g>
        </g>
    </g>
</svg>