<?xml version="1.0" encoding="UTF-8" standalone="no"?>
<svg width="174px" height="22px" viewBox="0 0 174 22" version="1.1" xmlns="http://www.w3.org/2000/svg" xmlns:xlink="http://www.w3.org/1999/xlink">
    <!-- Generator: Sketch 3.8.3 (29802) - http://www.bohemiancoding.com/sketch -->
    <title>lat</title>
    <desc>Created with Sketch.</desc>
    <defs></defs>
    <g id="Page-1" stroke="none" stroke-width="1" fill="none" fill-rule="evenodd">
        <g id="Los_Angeles_Times" fill="#ADADAD">
            <g id="lat">
                <path d="M155.865762,15.8637701 C155.155996,16.3993563 153.918937,17.4457471 153.24995,18.1204138 L150.834937,15.9952644 L150.834937,15.8637701 C151.148009,15.776023 151.215114,15.4864828 151.215114,15.1408046 L151.215114,9.37857471 C150.65556,8.98434483 149.515804,8.01103448 148.889145,7.45091954 L148.106853,8.12988506 L148.106853,15.1408046 L148.710283,15.6662759 C148.826169,15.7671724 148.969413,15.9077701 149.18002,15.9077701 C149.439149,15.9077701 149.616978,15.8174943 149.87301,15.6005287 L150.119234,15.8637701 C149.459797,16.3305747 148.240805,17.3317011 147.48071,18.1204138 L145.065697,15.9735172 L145.065697,15.8637701 C145.311663,15.776023 145.445099,15.6189885 145.445099,15.2505517 L145.445099,9.40057471 C144.864381,8.96209195 143.651068,7.93896552 143.120162,7.45091954 L142.337354,8.1083908 L142.337354,15.1408046 L142.896392,15.6227816 C143.090997,15.7906897 143.228563,15.9077701 143.433234,15.9077701 C143.678684,15.9077701 143.835607,15.8637701 144.10377,15.6005287 L144.349736,15.8637701 C143.57338,16.4570115 142.48163,17.4022529 141.711211,18.1204138 L139.296198,16.0170115 L139.296198,15.8855172 C139.564877,15.8197701 139.676375,15.6005287 139.676375,15.2065517 L139.676375,8.23963218 L139.050232,7.75765517 C138.893567,7.63652874 138.745161,7.56041379 138.603208,7.56041379 C138.407571,7.56041379 138.191285,7.65827586 137.932156,7.88889655 L137.68619,7.58216092 C138.401892,7.10650575 139.542165,6.09273563 140.347169,5.34777011 L142.471565,7.29767816 L144.752625,5.34777011 C145.818824,6.21816092 147.07782,7.23167816 147.815978,7.66990805 L150.521866,5.34777011 C151.528186,6.15822989 153.383644,7.60416092 154.322859,8.15213793 L154.322859,8.26137931 C154.054696,8.34937931 153.875577,8.5483908 153.875577,8.9405977 L153.875577,15.1185517 L154.367768,15.5787816 C154.537079,15.7373333 154.734007,15.9077701 154.949002,15.9077701 C155.217681,15.9077701 155.423642,15.7684368 155.641992,15.5787816 L155.865762,15.8637701" id="Fill-1"></path>
                <path d="M138.021974,2.34590805 L137.127152,3.13487356 C136.402157,3.7743908 135.820407,4.05482759 135.270919,4.05482759 C134.844543,4.05482759 134.437266,3.85935632 133.996694,3.48535632 C133.840804,3.35310345 133.694205,3.22262069 133.482565,3.22262069 C133.239954,3.22262069 133.037864,3.32882759 132.833709,3.52935632 L132.587743,3.26611494 L135.248722,1.00972414 L136.59031,2.17091954 C136.745943,2.30494253 136.957324,2.38990805 137.149348,2.38990805 C137.380087,2.38990805 137.621665,2.25917241 137.775233,2.08317241 L138.021974,2.34590805" id="Fill-2"></path>
                <path d="M138.558299,15.8637701 C137.877698,16.4064368 136.575599,17.5069425 135.919258,18.1421609 L133.482565,16.0170115 L133.482565,15.8855172 C133.741694,15.8167356 133.862484,15.5787816 133.862484,15.2722989 L133.862484,8.21788506 L133.303446,7.7794023 C133.142135,7.65321839 133.045865,7.56041379 132.833709,7.56041379 C132.592131,7.56041379 132.344616,7.66662069 132.140461,7.86714943 L131.895011,7.58216092 C132.561933,7.11257471 133.779377,6.11498851 134.555732,5.32551724 L136.970745,7.36342529 L136.970745,7.47291954 C136.764526,7.55004598 136.523721,7.71365517 136.523721,8.1083908 L136.523721,15.1408046 L137.149348,15.6885287 C137.303948,15.8233103 137.494166,15.9077701 137.68619,15.9077701 C137.916928,15.9077701 138.111017,15.7982759 138.312333,15.6005287 L138.558299,15.8637701" id="Fill-3"></path>
                <path d="M91.7787486,15.8637701 C91.1236986,16.3470115 89.9710377,17.3276552 89.1402237,18.1421609 L86.7249528,15.9952644 L86.7249528,15.8637701 C86.9368503,15.7937241 87.0829332,15.5532414 87.0829332,15.1848046 L87.0829332,3.96758621 L86.4340775,3.48535632 C86.2926404,3.38016092 86.1540424,3.28836782 86.0317044,3.28836782 C85.7493464,3.28836782 85.5493213,3.476 85.3609105,3.66085057 L85.0924898,3.37586207 C85.897494,2.78464368 87.0604788,1.79818391 87.7756653,1.07521839 L90.1911944,3.11287356 L90.1911944,3.20036782 C89.95581,3.26914943 89.7436543,3.59864368 89.7436543,3.96758621 L89.7436543,15.1408046 L90.39251,15.7102759 C90.549691,15.8485977 90.7442961,15.9077701 90.9288354,15.9077701 C91.1262795,15.9077701 91.3683745,15.7626207 91.5325241,15.6005287 L91.7787486,15.8637701" id="Fill-4"></path>
                <path d="M65.5935255,15.8637701 C64.8778228,16.3755862 63.5731429,17.4788736 62.9550007,18.1204138 L60.5399878,16.0170115 L60.5399878,15.8855172 C60.7696941,15.8101609 60.9201646,15.6050805 60.9201646,15.0968046 L60.9201646,9.40057471 C60.3213798,8.95222989 59.1844628,7.99965517 58.5944533,7.45091954 L57.8119034,8.1083908 L57.8119034,15.1408046 L58.5276062,15.7542759 C58.8081575,15.9947586 59.2482128,15.9449425 59.6010313,15.6227816 L59.8245432,15.8637701 C59.0845793,16.3993563 57.8908811,17.4353793 57.1860184,18.1204138 L54.7707474,16.0170115 L54.7707474,15.8855172 C55.0180042,15.7868966 55.1509242,15.5737241 55.1509242,15.2282989 L55.1509242,8.21788506 L54.5023266,7.75765517 C54.3546952,7.65296552 54.2573926,7.56041379 54.1221498,7.56041379 C53.816305,7.56041379 53.6126665,7.71770115 53.4291596,7.86714943 L53.1607388,7.58216092 C53.7987544,7.13937931 54.8732119,6.2442069 55.8217181,5.34777011 L57.9461138,7.29767816 L60.2269163,5.34777011 C61.0262424,6.02445977 63.0280422,7.52450575 64.0281677,8.17388506 L64.0281677,8.28363218 C63.6756073,8.37517241 63.5808858,8.63285057 63.5808858,8.78735632 L63.5808858,15.1408046 L64.3412393,15.8197701 C64.4715782,15.9365977 64.9010515,15.9932414 65.3475592,15.5787816 L65.5935255,15.8637701" id="Fill-5"></path>
                <path d="M173.866474,14.9655632 C172.216718,15.7408736 170.112196,17.0621379 168.902754,18.1204138 C168.20615,17.5668736 167.292745,17.0027126 166.219578,17.0027126 C165.212742,17.0027126 164.899671,17.3476322 164.899671,17.6821839 C164.899671,17.8897931 165.212742,17.8642529 165.212742,18.163908 C165.212742,18.3022299 165.066143,18.4708966 164.877474,18.4708966 C164.64209,18.4708966 164.407738,18.2291494 164.407738,17.8136782 C164.407738,17.1678391 164.799787,16.3093333 166.018263,14.9873103 L168.09775,12.7306667 L165.436512,11.3942299 L165.436512,11.2627356 C165.650733,11.2030575 165.727388,11.0288276 165.727388,10.7810115 L165.727388,8.83135632 C165.727388,8.62652874 165.601952,8.41942529 165.436512,8.32712644 L165.436512,8.17388506 C167.154147,7.34167816 169.132202,6.26114943 170.266796,5.32551724 C170.568253,5.65349425 171.407068,6.11448276 172.256465,6.11448276 C172.972426,6.11448276 173.06147,5.89954023 173.06147,5.65425287 C173.06147,5.51593103 172.949714,5.47901149 172.949714,5.36951724 C172.949714,5.18441379 173.055017,5.10678161 173.19568,5.10678161 C173.40732,5.10678161 173.575599,5.26204598 173.575599,5.65425287 C173.575599,6.69229885 172.570053,7.97689655 170.915136,7.97689655 C169.738472,7.97689655 169.016575,7.61149425 168.522577,7.03443678 L168.410821,7.10018391 L168.410821,9.97029885 L170.043026,10.7372644 L170.736016,10.0577931 L173.866474,11.6134713 L173.866474,11.7447126 C173.701808,11.814 173.598311,11.972046 173.598311,12.1611954 L173.598311,14.3738391 C173.598311,14.6666667 173.726069,14.7574483 173.866474,14.834069 L173.866474,14.9655632 L173.866474,14.9655632 Z M170.915136,16.1050115 L170.915136,12.8401609 L169.371974,12.1391954 L166.129761,15.5132874 L166.17467,15.5350345 C166.692412,15.2583908 167.463606,15.1185517 168.522577,15.1185517 C169.346423,15.1185517 170.352484,15.5729655 170.870227,16.1265057 L170.915136,16.1050115 L170.915136,16.1050115 Z" id="Fill-6"></path>
                <path d="M164.698613,9.48832184 L159.488411,12.7089195 L159.488411,14.7245747 C160.140622,14.9448276 161.53641,15.6574253 162.216495,16.0392644 L163.535629,14.8118161 C163.602734,14.4395862 163.739267,14.0671034 164.139575,14.0671034 C164.327986,14.0671034 164.430451,14.2246437 164.430451,14.3738391 C164.430451,14.557931 164.321017,14.7008046 164.229393,14.790069 L160.830257,18.0981609 C159.841745,17.4803908 157.622112,16.3523218 156.469709,15.8637701 L156.469709,15.7322759 C156.692963,15.6445287 156.804977,15.415931 156.804977,15.1625517 L156.804977,8.8525977 C156.804977,8.57696552 156.661733,8.32358621 156.446997,8.28363218 L156.446997,8.15213793 C157.958928,7.4494023 159.982924,6.31147126 161.568156,5.34777011 C162.487239,6.68395402 163.829601,8.46873563 164.698613,9.48832184 L164.698613,9.48832184 Z M162.171586,10.474023 C161.455109,9.59983908 160.217276,7.9945977 159.533062,6.96894253 L159.488411,6.99068966 L159.488411,12.1611954 L162.171586,10.474023 L162.171586,10.474023 Z" id="Fill-7"></path>
                <path d="M132.297384,1.5791954 C132.297384,3.3085977 131.114268,4.14181609 129.658859,4.36156322 L129.658859,15.3377931 C130.47651,14.7592184 131.128463,13.9811264 131.469667,13.1688966 C131.501929,13.0930345 131.514576,13.021977 131.514576,12.9716552 C131.514576,12.8565977 131.402046,12.7830115 131.402562,12.6431724 C131.403594,12.4924598 131.437405,12.3144368 131.648528,12.3144368 C131.836165,12.3144368 131.962116,12.4590805 131.962116,12.6431724 C131.962116,15.2685057 130.01271,18.6241379 124.5377,18.6241379 C120.622112,18.6241379 117.404417,15.73 117.404417,11.7009655 C117.404417,6.31931034 121.968345,4.42048276 125.052087,3.74809195 C124.0197,3.57866667 122.575389,3.33211494 121.228381,3.33211494 C118.653607,3.33211494 117.840859,4.52694253 117.628187,5.39126437 L117.360025,5.26002299 C117.406998,4.04193103 118.501846,0.702988506 121.854525,0.702988506 C125.138292,0.702988506 127.236103,2.03942529 129.79307,2.03942529 C131.481798,2.03942529 131.785062,1.29445977 131.939404,0.527747126 L132.230279,0.637241379 C132.252475,0.737885057 132.297384,1.37006897 132.297384,1.5791954 L132.297384,1.5791954 Z M129.233515,15.6227816 L129.233515,4.40556322 C129.102402,4.41441379 128.965353,4.42756322 128.831142,4.42756322 C128.291204,4.42756322 127.786108,4.31908046 127.154029,4.20857471 C126.343862,4.59016092 125.611125,5.42337931 125.611125,6.7062069 C125.611125,9.12114943 126.99788,9.68910345 126.99788,12.1391954 C126.99788,14.0655862 125.346318,15.479908 124.000859,16.1265057 C124.72895,16.3932874 125.538342,16.4989885 126.371737,16.4989885 C127.313791,16.4989885 128.604275,16.0486207 129.233515,15.6227816 L129.233515,15.6227816 Z M126.527885,4.07708046 L126.080862,3.98908046 C123.359746,4.48445977 120.22232,6.84351724 120.22232,10.7372644 C120.22232,13.2998851 121.611139,15.0657011 123.576031,15.9512644 C124.158814,15.5502069 124.806121,14.8216782 124.806121,13.5413793 C124.806121,11.2642529 123.307868,10.0254253 123.307868,7.95464368 C123.307868,6.40225287 124.341805,5.02131034 126.527885,4.07708046 L126.527885,4.07708046 Z" id="Fill-8"></path>
                <path d="M109.354375,14.9655632 C107.704619,15.7408736 105.599581,17.0621379 104.390138,18.1204138 C103.694051,17.5668736 102.780646,17.0027126 101.706963,17.0027126 C100.700643,17.0027126 100.387571,17.3476322 100.387571,17.6821839 C100.387571,17.8897931 100.700643,17.8642529 100.700643,18.163908 C100.700643,18.3022299 100.553528,18.4708966 100.365375,18.4708966 C100.129991,18.4708966 99.8956386,18.2291494 99.8956386,17.8136782 C99.8956386,17.1678391 100.287172,16.3093333 101.505647,14.9873103 L103.585134,12.7306667 L100.924413,11.3942299 L100.924413,11.2409885 C101.138633,11.1813103 101.214772,11.0288276 101.214772,10.7810115 L101.214772,8.83135632 C101.214772,8.56710345 101.12547,8.41487356 100.924413,8.32712644 L100.924413,8.17388506 C102.64179,7.34167816 104.620103,6.26114943 105.754181,5.32551724 C106.056154,5.65349425 106.894969,6.11448276 107.744366,6.11448276 C108.460069,6.11448276 108.54937,5.89954023 108.54937,5.65425287 C108.54937,5.51593103 108.437614,5.45954023 108.437614,5.36951724 C108.437614,5.18441379 108.542918,5.10678161 108.683581,5.10678161 C108.895736,5.10678161 109.064015,5.26204598 109.064015,5.65425287 C109.064015,6.69229885 108.035241,7.97689655 106.403036,7.97689655 C105.226372,7.97689655 104.504475,7.61149425 104.009962,7.03443678 L103.898206,7.10018391 L103.898206,9.97029885 L105.530411,10.7372644 L106.223917,10.0577931 L109.354375,11.6134713 L109.354375,11.7664598 C109.189192,11.8357471 109.086212,11.9937931 109.086212,12.1829425 L109.086212,14.352092 C109.086212,14.6449195 109.198226,14.768069 109.354375,14.8118161 L109.354375,14.9655632 L109.354375,14.9655632 Z M106.403036,16.1050115 L106.403036,12.8401609 L104.859875,12.1391954 L101.617661,15.5132874 L101.66257,15.5350345 C102.180054,15.2583908 102.951506,15.1185517 104.009962,15.1185517 C104.834323,15.1185517 105.840385,15.5729655 106.358127,16.1265057 L106.403036,16.1050115 L106.403036,16.1050115 Z" id="Fill-9"></path>
                <path d="M100.342662,9.48832184 L95.1329761,12.7089195 L95.1329761,14.7245747 C95.7851871,14.9448276 97.1809752,15.6574253 97.8610606,16.0392644 L99.1801939,14.8118161 C99.2694955,14.4395862 99.3833162,14.0671034 99.7836245,14.0671034 C99.9722934,14.0671034 100.0745,14.2246437 100.0745,14.3738391 C100.0745,14.557931 99.9877792,14.7008046 99.8956386,14.790069 L96.474822,18.0981609 C95.4863108,17.4803908 93.2661611,16.3523218 92.1140165,15.8637701 L92.1140165,15.7322759 C92.3029434,15.6629885 92.4495425,15.415931 92.4495425,15.1625517 L92.4495425,8.8525977 C92.4495425,8.57696552 92.3065568,8.32358621 92.091562,8.28363218 L92.091562,8.15213793 C93.6029776,7.4494023 95.6269736,6.31147126 97.2122049,5.34777011 C98.1318042,6.68395402 99.4736501,8.46873563 100.342662,9.48832184 L100.342662,9.48832184 Z M97.8161517,10.474023 C97.0994166,9.59983908 95.8618418,7.9945977 95.177885,6.96894253 L95.1329761,6.99068966 L95.1329761,12.1611954 L97.8161517,10.474023 L97.8161517,10.474023 Z" id="Fill-10"></path>
                <path d="M85.561968,9.48832184 L80.3298273,12.7089195 L80.3298273,14.7245747 C80.9822963,14.9448276 82.3775683,15.6574253 83.0576536,16.0392644 L84.376787,14.8118161 C84.4666047,14.4178391 84.5781026,14.0671034 85.0031882,14.0671034 C85.191599,14.0671034 85.2713509,14.2246437 85.2713509,14.3738391 C85.2713509,14.557931 85.1843723,14.7008046 85.0924898,14.790069 L81.6714151,18.1204138 C80.683162,17.5021379 78.4632704,16.3523218 77.3111257,15.8637701 L77.3111257,15.7322759 C77.4995365,15.6629885 77.6463936,15.415931 77.6463936,15.1625517 L77.6463936,8.8525977 C77.6463936,8.57696552 77.5034079,8.32358621 77.2886713,8.28363218 L77.2886713,8.15213793 C78.8003449,7.4494023 80.8465373,6.31147126 82.4315105,5.34777011 C83.3511098,6.68395402 84.6926976,8.46873563 85.561968,9.48832184 L85.561968,9.48832184 Z M83.0127448,10.474023 C82.2965258,9.59983908 81.0584349,7.9945977 80.3744781,6.96894253 L80.3298273,6.99068966 L80.3298273,12.1611954 L83.0127448,10.474023 L83.0127448,10.474023 Z" id="Fill-11"></path>
                <path d="M76.3494566,17.2004598 C76.2784799,19.9443908 74.9838658,21.9544828 72.3690859,21.9544828 C70.3218611,21.9544828 69.040668,20.9025287 67.1810797,20.9025287 C66.0986212,20.9025287 65.4969973,21.2565517 65.1908943,21.6257471 L64.9002772,21.3847586 C65.3003274,19.4937701 66.5975226,18.295908 68.4336241,18.295908 C70.4576201,18.295908 71.7253922,19.566092 73.8673385,19.566092 C74.8558497,19.566092 75.4406973,19.0982759 75.7233135,18.3831494 L75.700859,18.3391494 C75.3854646,18.4476322 75.0566491,18.4928966 74.7397061,18.4928966 C73.6363418,18.4928966 72.6372486,17.7570345 72.4361911,16.5209885 C71.9104477,16.8808276 70.8522503,17.6763678 70.3339917,18.1204138 C69.0409261,17.3041379 67.054096,16.262046 66.0405494,15.8197701 L66.0405494,15.6885287 C66.2519308,15.6189885 66.3985298,15.4154253 66.3985298,15.1625517 L66.3985298,8.8965977 C66.3985298,8.52866667 66.2545118,8.32990805 65.9958986,8.28363218 L65.9958986,8.17388506 C67.8036095,7.49314943 69.8072159,6.30995402 71.1165415,5.32551724 C72.2446832,6.20071264 74.113563,7.47367816 75.3209404,8.15213793 L75.3209404,8.26137931 C75.1562745,8.33041379 75.0078688,8.50590805 75.0078688,8.87510345 L75.0078688,15.7542759 C75.0078688,16.612023 75.2249283,17.0684598 75.8575239,17.0684598 C75.9579236,17.0684598 76.0704538,17.0752874 76.1927918,17.0467126 L76.3494566,17.2004598 L76.3494566,17.2004598 Z M72.3468896,16.0830115 L72.3468896,9.37857471 C71.6456402,8.92466667 70.0108543,7.76903448 69.171265,7.12243678 L69.0597672,7.20993103 L69.0597672,14.6148276 C69.9545892,15.0414253 71.5256252,15.972 72.0113636,16.3237471 L72.3468896,16.0830115 L72.3468896,16.0830115 Z" id="Fill-12"></path>
                <path d="M54.189255,16.0610115 C53.4369025,17.3276552 52.6569336,18.273908 51.5282758,18.273908 C50.6352604,18.273908 50.0039554,17.7727126 49.6723008,16.827977 L48.1965026,12.6214253 L42.4721711,12.6214253 L41.6447123,14.9655632 C42.5614726,15.034092 43.4010619,15.5787816 43.6348977,15.5787816 C43.8935108,15.5787816 44.1128932,15.3822989 44.3952512,14.9215632 L44.7527154,15.1408046 L42.8523478,18.1204138 C42.3346054,17.6824368 41.5197934,17.2222069 40.4370768,17.2222069 C38.95431,17.2222069 38.0339364,17.6126437 37.3515282,18.1204138 L37.1053037,18.0324138 C37.4346354,16.4663678 38.7566078,15.1051494 41.0634781,14.9438161 L45.0435907,3.50710345 L44.9091222,3.11287356 C44.6345071,2.30443678 44.0891483,1.86393103 43.5009454,1.86393103 C42.8889976,1.86393103 42.5717965,2.13855172 42.3604151,2.34590805 L42.1815539,2.19291954 C42.3459617,1.29344828 43.1917453,0.308758621 44.4845527,0.308758621 C45.5657207,0.308758621 46.298716,0.826137931 46.69825,1.44795402 L46.7429008,1.44795402 C46.9307954,0.96445977 47.2833557,0.573517241 47.6599192,0.527747126 L47.7270244,0.637241379 C47.5863615,0.744206897 47.4139528,1.17636782 47.4139528,1.6451954 C47.4139528,1.88137931 47.4686693,2.11629885 47.5479051,2.34590805 L52.2437205,15.9512644 C52.3549602,16.2731724 52.5882798,16.4332414 52.8476672,16.4332414 C53.2247468,16.4332414 53.4585827,16.214 53.7644275,15.776023 L54.189255,16.0610115 L54.189255,16.0610115 Z M47.6374647,10.956 L45.3566622,4.38381609 L45.3117534,4.38381609 L43.031209,10.956 L47.6374647,10.956 L47.6374647,10.956 Z" id="Fill-13"></path>
                <path d="M31.9622064,14.9655632 C30.3121928,15.7408736 28.2074124,17.0621379 26.9979702,18.1204138 C26.3018828,17.5668736 25.3882197,17.0027126 24.3147946,17.0027126 C23.3087328,17.0027126 22.9954032,17.3476322 22.9954032,17.6821839 C22.9954032,17.8897931 23.3087328,17.8642529 23.3087328,18.163908 C23.3087328,18.3022299 23.1613595,18.4708966 22.9732069,18.4708966 C22.7375644,18.4708966 22.5034705,18.2291494 22.5034705,17.8136782 C22.5034705,17.1678391 22.8952616,16.3093333 24.1137371,14.9873103 L26.193224,12.7306667 L23.5322448,11.3942299 L23.5322448,11.2409885 C23.7467233,11.1813103 23.8228619,11.0288276 23.8228619,10.7810115 L23.8228619,8.83135632 C23.8228619,8.62652874 23.6974268,8.41942529 23.5322448,8.32712644 L23.5322448,8.17388506 C25.2498798,7.34167816 27.2276765,6.26114943 28.3620124,5.32551724 C28.6642439,5.65349425 29.5025427,6.11448276 30.3521978,6.11448276 C31.0679006,6.11448276 31.1572021,5.89954023 31.1572021,5.65425287 C31.1572021,5.51593103 31.0454461,5.45954023 31.0454461,5.36951724 C31.0454461,5.18441379 31.1504916,5.10678161 31.2914125,5.10678161 C31.503052,5.10678161 31.6715892,5.26204598 31.6715892,5.65425287 C31.6715892,6.69229885 30.7994798,7.97689655 29.01061,7.97689655 C27.8342042,7.97689655 27.1123072,7.61149425 26.6180516,7.03443678 L26.5062956,7.10018391 L26.5062956,9.97029885 L28.1385005,10.7372644 L28.8317488,10.0577931 L31.9622064,11.6134713 L31.9622064,11.7887126 C31.7970244,11.858 31.6937856,12.0155402 31.6937856,12.2051954 L31.6937856,14.352092 C31.6937856,14.6449195 31.8218017,14.7357011 31.9622064,14.8118161 L31.9622064,14.9655632 L31.9622064,14.9655632 Z M29.01061,16.1050115 L29.01061,12.8401609 L27.4677066,12.1391954 L24.2254931,15.5132874 L24.2701439,15.5350345 C24.7876282,15.2583908 25.559338,15.1185517 26.6180516,15.1185517 C27.442155,15.1185517 28.4482168,15.5729655 28.9657011,16.1265057 L29.01061,16.1050115 L29.01061,16.1050115 Z" id="Fill-14"></path>
                <path d="M22.0696095,15.2722989 C20.5940694,15.8637701 18.1566021,17.2222069 16.9936174,18.1204138 C15.674226,17.265954 13.9302651,15.9735172 12.7226296,15.294046 L12.7226296,15.1408046 C12.9910504,15.0528046 13.0581556,14.8118161 13.0581556,14.4833333 L13.0581556,9.07183908 C13.0581556,8.56963218 12.9616273,8.36505747 12.6779788,8.30537931 L12.6779788,8.17388506 C14.4221978,7.49491954 16.1886131,6.53071264 17.7539709,5.32551724 C18.8495924,6.18022989 20.8397777,7.45091954 21.980308,8.15213793 L21.980308,8.28363218 C21.7446655,8.37567816 21.6896909,8.57595402 21.6896909,8.8525977 L21.6896909,14.5710805 C21.6896909,14.8775632 21.8811988,15.0717701 22.0696095,15.1408046 L22.0696095,15.2722989 L22.0696095,15.2722989 Z M19.0062572,16.302 L19.0062572,9.22533333 C18.0670425,8.6776092 16.6358951,7.71365517 15.8755415,7.12243678 L15.7415892,7.20993103 L15.7415892,14.2423448 C16.747651,14.790069 18.0670425,15.7322759 18.9166976,16.3677471 L19.0062572,16.302 L19.0062572,16.302 Z" id="Fill-15"></path>
                <path d="M12.3199984,14.0888506 L10.1734063,18.1204138 C9.34981902,17.428046 8.13005298,16.9369655 6.52959398,16.9369655 C4.12877643,16.9369655 1.13820742,17.5463908 0.290617132,18.0764138 L0,17.769931 C0.941537564,16.9627586 1.92308015,14.8682069 1.92308015,12.3801839 C1.92308015,9.72829885 0.380176763,8.47708046 0.380176763,5.85174713 C0.380176763,3.15308046 1.61000859,1.65657471 3.89081107,0.527747126 L4.15923187,0.768735632 C3.34287131,1.43455172 2.92010855,2.23337931 2.83984041,3.22262069 L6.77556034,0.0457701149 C7.50494224,0.737632184 8.66792696,1.51344828 9.72638243,1.51344828 C10.526741,1.51344828 10.9337598,1.35337931 10.9337598,1.00972414 C10.9337598,0.824873563 10.7773531,0.769747126 10.7773531,0.658988506 C10.7773531,0.474643678 10.9133702,0.396 11.0679702,0.396 C11.2801259,0.396 11.4256926,0.643563218 11.4256926,0.921977011 C11.4256926,2.37524138 9.90446931,3.59510345 8.34066007,3.59510345 C7.82162716,3.59510345 7.38389478,3.5516092 6.99907228,3.44135632 L6.99907228,14.4395862 C7.2401348,14.4163218 7.43964372,14.396092 7.60276097,14.396092 C9.08604397,14.396092 10.4018221,15.0095632 10.7548987,15.0095632 C11.272383,15.0095632 11.458729,14.6474483 11.8729745,13.8701149 L12.3199984,14.0888506 L12.3199984,14.0888506 Z M6.57424475,14.4833333 L6.57424475,3.26611494 C5.98397709,3.00868966 5.50107775,2.61901149 5.00888693,2.06142529 L2.81738598,3.79209195 C2.81738598,7.02078161 4.53940863,8.48087356 4.53940863,11.0874943 C4.53940863,12.9107126 3.22569531,14.8075172 2.21395538,15.776023 L2.30325691,15.7982759 C3.64148944,15.0490115 5.37564265,14.6464368 6.57424475,14.4833333 L6.57424475,14.4833333 Z" id="Fill-16"></path>
            </g>
        </g>
    </g>
</svg>