<?xml version="1.0" encoding="UTF-8" standalone="no"?>
<svg width="200px" height="148px" viewBox="0 0 200 148" version="1.1" xmlns="http://www.w3.org/2000/svg" xmlns:xlink="http://www.w3.org/1999/xlink">
    <!-- Generator: Sketch 3.8.3 (29802) - http://www.bohemiancoding.com/sketch -->
    <title>Group 7</title>
    <desc>Created with Sketch.</desc>
    <defs></defs>
    <g id="Page-1" stroke="none" stroke-width="1" fill="none" fill-rule="evenodd">
        <g id="Desktop" transform="translate(-289.000000, -189.000000)" fill="#EAEAEA">
            <g id="Group" transform="translate(288.000000, 189.000000)">
                <g id="Group-7">
                    <path d="M200.673109,127.599002 C200.673109,127.599002 191.224774,145.034248 168.563722,147.174516 L117.5555,147.174516 C117.5555,147.174516 115.633768,147.174516 114.112849,145.986431 L106.826734,140.438463 C106.826734,140.438463 106.186518,139.250379 101.061538,139.169958 L38.1221138,140.200417 L5.76465676,140.507089 C4.78970828,140.487788 4,137.578697 4,133.991926 C4,130.393359 4.7929581,127.476762 5.77332297,127.476762 C5.78307246,127.476762 100.985709,131.00563 100.985709,131.00563 C100.985709,131.00563 106.350092,130.767585 106.991392,129.5795 L112.917995,124.822873 C112.917995,124.822873 114.117182,123.238046 116.681296,123 L196.055103,124.945113 C196.055103,124.945113 202.502762,124.563382 200.673109,127.599002 Z" id="Fill-26" transform="translate(102.500000, 135.087258) rotate(-360.000000) translate(-102.500000, -135.087258) "></path>
                    <path d="M196.769428,24.0448964 C209.67919,25.2514162 188.924455,28.5777782 188.924455,28.5777782 C167.133151,30.3213939 140.314681,30.1241993 140.314681,30.1241993 C135.495088,30.8130832 130.675496,25.4784495 130.675496,25.4784495 L125.119018,20.2112771 C121.856225,18.4144707 119.157773,18.2899268 115.530429,18.4196601 L5.94470232,20.6212343 C5.92005299,20.6264237 5.89410632,20.6368023 5.87075433,20.6368023 C4.83677985,20.6368023 4,17.5283922 4,13.6986649 C4,9.87023496 4.83418518,6.76960885 5.865565,6.75404085 L38.9345857,7.57525271 L119.143502,10.5046308 C123.619301,10.5046308 124.651978,9.47065636 124.651978,9.47065636 L129.470273,5.85628635 C135.05659,-0.360533861 142.20749,0.00401673995 142.20749,0.00401673995 L154.946003,0.176562042 C161.663594,0.0143954047 188.681853,2.93080021 188.681853,2.93080021 C203.153604,4.8430692 200.041302,5.68503838 200.041302,5.68503838 C198.147196,6.71382353 188.681853,7.0576168 188.681853,7.0576168 L151.675427,7.23275677 C148.748643,7.0576168 148.406147,9.47065636 148.406147,9.47065636 C148.534583,12.6140945 152.003652,12.1301892 152.003652,12.1301892 L183.518468,13.083729 C197.975948,13.4275223 200.386393,15.8379672 200.386393,15.8379672 C197.975948,18.762156 183.345922,18.4196601 183.345922,18.4196601 L152.090573,18.3210628 C148.819997,17.9785668 148.748643,20.4850144 148.748643,20.4850144 C148.406147,23.4092032 152.139872,22.9979486 152.139872,22.9979486 L196.769428,24.0448964" id="Fill-28" transform="translate(102.500000, 15.092802) rotate(-180.000000) translate(-102.500000, -15.092802) "></path>
                    <g id="Group-2" transform="translate(0.000000, 32.000000)" font-size="86.3117292" font-family="LiSongPro, LiSong Pro" font-weight="300">
                        <text id="VIBE">
                            <tspan x="0.180485211" y="74.1678747">VIBE</tspan>
                        </text>
                    </g>
                </g>
            </g>
        </g>
    </g>
</svg>