<?xml version="1.0" encoding="UTF-8" standalone="no"?>
<svg width="100px" height="16px" viewBox="0 0 100 16" version="1.1" xmlns="http://www.w3.org/2000/svg" xmlns:xlink="http://www.w3.org/1999/xlink">
    <!-- Generator: Sketch 3.8.3 (29802) - http://www.bohemiancoding.com/sketch -->
    <title>techradar</title>
    <desc>Created with Sketch.</desc>
    <defs></defs>
    <g id="Page-1" stroke="none" stroke-width="1" fill="none" fill-rule="evenodd">
        <g id="techradar-seeklogo.com" fill="#ADADAD">
            <g id="techradar">
                <path d="M6.317,12.571 C5.82,12.32 5.841,11.699 5.828,11.224 C5.833,9.573 5.83,7.925 5.833,6.276 C6.636,6.274 7.438,6.274 8.242,6.274 C8.247,5.43 8.242,4.586 8.244,3.742 C7.44,3.742 6.636,3.742 5.832,3.74 C5.833,2.588 5.828,1.437 5.833,0.285 C4.546,0.282 3.258,0.282 1.97,0.285 C1.973,1.435 1.97,2.587 1.973,3.737 C1.315,3.743 0.658,3.742 0,3.743 C0,4.586 0,5.43 0.001,6.274 C0.661,6.274 1.318,6.27 1.978,6.283 C1.97,8.308 1.967,10.331 1.976,12.356 C2.021,13.429 2.285,14.715 3.343,15.241 C4.876,15.94 6.616,15.662 8.242,15.592 C8.244,14.627 8.244,13.661 8.242,12.698 C7.605,12.701 6.916,12.861 6.317,12.571" id="Fill-1"></path>
                <path d="M40.808,3.414 C39.37,3.405 37.875,4.089 37.14,5.364 C37.168,3.671 37.145,1.978 37.153,0.285 C35.865,0.284 34.578,0.282 33.292,0.285 C33.308,3.719 33.277,7.151 33.261,10.585 C33.261,10.737 33.205,10.866 33.091,10.97 C31.897,10.814 30.686,10.938 29.485,10.9 C29.35,11.503 29.136,12.149 28.605,12.522 C27.793,13.066 26.574,13.054 25.863,12.34 C25.178,11.682 24.993,10.679 24.985,9.767 C25.009,8.911 25.084,7.991 25.591,7.271 C26.331,6.233 28.049,6.086 28.922,7.031 C29.202,7.314 29.292,7.709 29.383,8.083 C30.645,8.083 31.905,8.089 33.168,8.079 C33.066,7.126 32.753,6.178 32.14,5.427 C31.246,4.285 29.829,3.676 28.422,3.475 C27.206,3.343 25.937,3.385 24.787,3.845 C23.695,4.264 22.746,5.043 22.12,6.033 C21.173,7.51 20.937,9.356 21.197,11.067 C21.481,12.837 22.642,14.434 24.252,15.225 C26.759,16.435 30.059,16.054 32.026,14.008 C32.116,13.834 32.2,13.658 32.333,13.516 C32.888,12.935 32.895,12.071 33.271,11.394 C33.316,12.782 33.282,14.172 33.292,15.562 C34.578,15.563 35.867,15.563 37.153,15.563 C37.153,13.524 37.152,11.485 37.153,9.448 C37.158,8.715 37.248,7.925 37.721,7.332 C38.342,6.522 39.598,6.422 40.438,6.921 C41.104,7.363 41.141,8.246 41.168,8.966 C41.181,11.164 41.169,13.362 41.173,15.56 C42.459,15.563 43.747,15.565 45.034,15.562 C45.034,12.882 45.032,10.202 45.035,7.521 C45.008,6.411 44.733,5.213 43.896,4.425 C43.086,3.639 41.9,3.405 40.808,3.414" id="Fill-3"></path>
                <path d="M11.951,8.399 C12.122,7.513 12.612,6.621 13.479,6.255 C14.431,5.839 15.665,6.096 16.274,6.966 C16.591,7.38 16.725,7.893 16.802,8.399 C15.186,8.411 13.569,8.409 11.951,8.399 L11.951,8.399 Z M18.235,4.509 C15.687,2.746 11.856,3.111 9.72,5.374 C8.631,6.485 8.043,8.052 8.077,9.603 C8.042,11.065 8.442,12.568 9.367,13.72 C10.32,14.919 11.796,15.609 13.295,15.813 C14.994,16.024 16.818,15.858 18.306,14.95 C19.401,14.29 20.19,13.185 20.499,11.949 C19.29,11.942 18.08,11.94 16.873,11.949 C16.118,13.472 13.821,13.663 12.68,12.491 C12.19,11.982 12.017,11.264 11.951,10.58 C14.87,10.569 17.791,10.585 20.71,10.572 C20.792,8.338 20.134,5.869 18.235,4.509 L18.235,4.509 Z" id="Fill-4"></path>
                <path d="M73.778,12.222 C73.086,13.143 71.576,13.254 70.74,12.471 C70.134,11.939 69.894,11.123 69.791,10.35 C69.67,9.372 69.754,8.313 70.293,7.462 C70.558,7.03 70.987,6.708 71.479,6.58 C72.265,6.341 73.205,6.571 73.72,7.232 C74.299,7.974 74.436,8.957 74.43,9.873 C74.397,10.686 74.278,11.551 73.778,12.222 L73.778,12.222 Z M74.306,5.13 C72.747,2.949 69.18,2.983 67.43,4.907 C66.293,6.15 65.821,7.885 65.857,9.544 C65.844,11.32 66.306,13.201 67.539,14.536 C68.518,15.599 70.003,16.081 71.427,15.978 C72.643,15.964 73.778,15.288 74.47,14.305 C74.466,14.753 74.468,15.202 74.47,15.652 L78.165,15.652 C78.165,10.502 78.169,5.353 78.165,0.203 C76.88,0.203 75.594,0.198 74.309,0.208 C74.306,1.848 74.309,3.488 74.306,5.13 L74.306,5.13 Z" id="Fill-5"></path>
                <path d="M53.962,3.645 C53.102,3.504 52.196,3.532 51.379,3.863 C50.489,4.202 49.837,4.96 49.442,5.808 C49.467,5.148 49.46,4.49 49.457,3.833 C48.198,3.829 46.938,3.831 45.679,3.831 C45.679,7.772 45.678,11.712 45.681,15.652 L49.539,15.652 C49.546,13.719 49.526,11.786 49.547,9.853 C49.541,8.9 49.991,7.935 50.822,7.438 C51.765,6.85 52.94,6.96 53.967,7.242 C53.955,6.043 53.965,4.843 53.962,3.645" id="Fill-6"></path>
                <path d="M61.037,12.851 C60.441,13.572 59.347,13.697 58.496,13.436 C57.88,13.272 57.522,12.582 57.664,11.977 C57.736,11.509 58.124,11.161 58.544,10.989 C59.526,10.576 60.632,10.593 61.611,10.166 C61.582,11.076 61.609,12.085 61.037,12.851 L61.037,12.851 Z M65.333,6.958 C65.284,6.126 64.955,5.288 64.337,4.715 C63.345,3.802 61.935,3.586 60.638,3.517 C58.972,3.458 57.172,3.551 55.744,4.506 C54.749,5.153 54.22,6.327 54.183,7.49 C55.401,7.488 56.619,7.496 57.838,7.485 C57.997,6.897 58.37,6.314 58.989,6.144 C59.776,5.931 60.732,5.994 61.353,6.575 C61.857,7.057 61.662,8.067 60.943,8.215 C59.108,8.691 57.1,8.55 55.386,9.452 C54.576,9.856 53.969,10.638 53.822,11.534 C53.664,12.548 53.728,13.679 54.356,14.532 C54.948,15.369 55.955,15.819 56.95,15.944 C58.608,16.155 60.423,15.775 61.657,14.592 C61.745,14.93 61.671,15.382 61.93,15.636 C63.221,15.678 64.516,15.641 65.809,15.648 C65.557,15.036 65.397,14.385 65.384,13.721 C65.286,11.467 65.376,9.211 65.333,6.958 L65.333,6.958 Z" id="Fill-7"></path>
                <path d="M85.648,12.846 C85.026,13.595 83.873,13.717 83,13.396 C82.112,13.088 81.986,11.742 82.744,11.225 C83.778,10.538 85.105,10.666 86.218,10.168 C86.19,11.075 86.215,12.08 85.648,12.846 L85.648,12.846 Z M89.939,6.954 C89.896,6.195 89.616,5.438 89.101,4.873 C88.158,3.868 86.714,3.609 85.399,3.525 C83.687,3.451 81.829,3.521 80.357,4.501 C79.357,5.147 78.828,6.324 78.789,7.488 C80.009,7.49 81.228,7.493 82.446,7.487 C82.603,6.897 82.978,6.314 83.597,6.144 C84.383,5.933 85.339,5.996 85.959,6.575 C86.464,7.062 86.268,8.074 85.543,8.217 C83.713,8.688 81.712,8.553 80.001,9.447 C79.188,9.851 78.579,10.633 78.429,11.53 C78.271,12.545 78.333,13.676 78.963,14.531 C79.555,15.369 80.561,15.819 81.556,15.944 C83.216,16.155 85.033,15.777 86.268,14.587 C86.316,14.932 86.372,15.275 86.429,15.621 C87.756,15.691 89.086,15.633 90.416,15.652 C90.163,15.033 90.003,14.378 89.989,13.707 C89.894,11.457 89.983,9.204 89.939,6.954 L89.939,6.954 Z" id="Fill-8"></path>
                <path d="M99.158,7.239 C99.149,6.039 99.162,4.839 99.152,3.64 C98.293,3.509 97.392,3.532 96.579,3.861 C95.687,4.199 95.028,4.959 94.64,5.809 C94.657,5.15 94.652,4.49 94.652,3.831 L90.873,3.831 L90.873,15.652 L94.732,15.652 C94.745,13.661 94.705,11.67 94.752,9.681 C94.767,8.545 95.55,7.461 96.651,7.154 C97.472,6.888 98.345,7.035 99.158,7.239" id="Fill-9"></path>
                <path d="M99.997,11.39 C98.576,11.392 97.156,11.39 95.736,11.392 C95.742,12.824 95.732,14.258 95.739,15.691 C97.159,15.693 98.579,15.695 100,15.691 C99.997,14.258 100.003,12.823 99.997,11.39" id="Fill-10"></path>
            </g>
        </g>
    </g>
</svg>