<?xml version="1.0" encoding="UTF-8" standalone="no"?>
<svg width="202px" height="151px" viewBox="0 0 202 151" version="1.1" xmlns="http://www.w3.org/2000/svg" xmlns:xlink="http://www.w3.org/1999/xlink">
    <!-- Generator: Sketch 3.8.3 (29802) - http://www.bohemiancoding.com/sketch -->
    <title>vibelogo</title>
    <desc>Created with Sketch.</desc>
    <defs></defs>
    <g id="Page-1" stroke="none" stroke-width="1" fill="none" fill-rule="evenodd">
        <g id="Desktop" transform="translate(-1867.000000, -886.000000)" fill="#EAEAEA">
            <g id="vibelogo" transform="translate(1867.000000, 886.000000)">
                <path d="M196.596806,128.011532 C196.596806,128.011532 203.196939,127.616766 201.324019,130.756043 C201.324019,130.756043 191.652251,148.786649 168.455312,151 L116.240852,151 C116.240852,151 114.273675,151 112.716789,149.771346 L105.258372,144.033932 C105.258372,144.033932 104.603016,142.805278 99.3568419,142.722111 L34.9290308,143.787758 L1.80638723,144.104901 L1.80638723,144.101575 C0.808383234,144.084941 -6.82121026e-13,141.076514 -6.82121026e-13,137.367265 C-6.82121026e-13,133.645819 0.811709914,130.62963 1.81525837,130.62963 C1.82523841,130.62963 1.83300067,130.634065 1.84298071,130.634065 L99.2792193,134.278998 C99.2792193,134.278998 104.770459,134.032823 105.426924,132.804169 L111.493679,127.885119 C111.493679,127.885119 112.721224,126.246174 115.345975,126 L196.596806,128.011532" id="Fill-26" transform="translate(100.829320, 138.500000) rotate(-360.000000) translate(-100.829320, -138.500000) "></path>
                <path d="M196.976,18.2455261 L157.72,17.9445261 C157.716,17.9415261 157.714,17.9385261 157.71,17.9365261 C156.942,17.9265261 156.323,17.3025261 156.323,16.5335261 C156.323,15.8035261 156.881,15.2105261 157.593,15.1415261 C157.61,15.1315261 157.62,15.1255261 157.62,15.1255261 L196.976,14.4215261 C200.156,14.5735261 200.816,12.7945261 200.816,12.7945261 C200.156,10.9485261 196.875,10.9985261 196.875,10.9985261 L157.52,9.48952609 C157.494,9.48152609 157.477,9.47252609 157.452,9.46552609 C157.449,9.46552609 157.447,9.46652609 157.444,9.46652609 C157.05,9.46652609 156.719,9.25752609 156.517,8.95752609 C156.371,8.80052609 156.322,8.63652609 156.337,8.47552609 C156.333,8.43652609 156.314,8.40352609 156.314,8.36352609 C156.314,7.75352609 156.82,7.25952609 157.444,7.25952609 C157.477,7.25952609 157.505,7.27452609 157.537,7.27752609 L197.077,8.28152609 C204.177,6.99452609 197.257,4.88652609 197.257,4.88652609 L178.673,2.97452609 L149.266,0.228526094 C147.745,0.0855260941 145.816,-0.112473906 144.026,0.0795260941 C142.89,0.201526094 141.81,0.481526094 140.925,1.03252609 C139.429,1.96452609 138.898,3.45052609 137.891,4.75652609 C137.888,4.75952609 135.174,8.27952609 135.174,8.27952609 C132.658,11.5015261 129.739,10.9975261 129.739,10.9975261 L7.152,7.10852609 C7.133,7.10652609 7.114,7.09752609 7.094,7.09752609 C5.937,7.09752609 5,10.5785261 5,14.8725261 C5,19.1665261 5.937,22.6465261 7.094,22.6465261 C7.131,22.6465261 7.166,22.6345261 7.201,22.6265261 L129.84,19.8565261 C134.2,20.4955261 136.103,24.2155261 136.103,24.2155261 L137.59,26.5005261 C139.704,30.5275261 143.543,30.7905261 143.543,30.7905261 C145.29,30.7905261 147.138,30.9155261 148.92,30.9265261 C152.115,30.9455261 155.287,30.6725261 158.476,30.4815261 C162.358,30.2485261 166.242,29.9905261 170.122,29.7235261 C174.307,29.4365261 178.494,29.1805261 182.68,28.9185261 C186.044,28.7085261 189.406,28.4905261 192.77,28.2815261 C194.134,28.1955261 195.498,28.1045261 196.862,28.0175261 C204.309,25.7105261 196.674,24.3855261 196.674,24.3855261 L157.52,25.1905261 C157.512,25.1845261 157.507,25.1795261 157.5,25.1745261 C156.805,25.1185261 156.257,24.5445261 156.257,23.8345261 C156.257,23.0895261 156.861,22.4845261 157.607,22.4845261 C157.623,22.4845261 157.638,22.4885261 157.653,22.4895261 C157.692,22.4795261 157.72,22.4725261 157.72,22.4725261 L196.775,21.7685261 C206.023,19.7795261 196.976,18.2455261 196.976,18.2455261" id="Fill-491" transform="translate(102.968994, 15.463733) rotate(-180.000000) translate(-102.968994, -15.463733) "></path>
                <text id="VIBE" font-family="LucidaGrande, Lucida Grande" font-size="96.6691367" font-weight="normal">
                    <tspan x="4.47515885" y="109">VIBE</tspan>
                </text>
            </g>
        </g>
    </g>
</svg>