<?xml version="1.0" encoding="UTF-8" standalone="no"?>
<svg width="177px" height="27px" viewBox="0 0 177 27" version="1.1" xmlns="http://www.w3.org/2000/svg" xmlns:xlink="http://www.w3.org/1999/xlink">
    <!-- Generator: Sketch 3.8.3 (29802) - http://www.bohemiancoding.com/sketch -->
    <title>wapo</title>
    <desc>Created with Sketch.</desc>
    <defs></defs>
    <g id="Page-1" stroke="none" stroke-width="1" fill="none" fill-rule="evenodd">
        <g id="The_Washington_Post" fill="#ADADAD">
            <g id="Group">
                <g id="wapo">
                    <path d="M8.193,8.516 L4.41,10.635 L4.662,11.039 L5.469,10.61 L5.469,16.991 L4.687,17.42 C3.502,16.411 3.023,14.847 3.023,13.283 C3.023,10.433 4.284,9.021 5.57,7.684 C6.453,7.936 7.235,8.314 8.193,8.516 L8.193,8.516 Z M0.504,13.855 C0.753,11.011 2.613,9.176 5.192,7.558 C4.813,7.457 4.485,7.407 4.082,7.407 C2.266,7.407 1.207,8.642 1.207,9.904 L0.853,9.904 C0.828,9.727 0.828,9.55 0.828,9.374 C0.828,7.028 2.215,4.405 5.091,4.405 C6.932,4.405 8.344,6.095 10.488,6.095 C11.573,6.095 12.178,5.691 12.607,4.758 L12.91,4.758 C12.885,6.397 12.405,7.986 10.362,8.516 L10.362,17.747 C11.548,17.041 12.128,16.032 12.557,14.696 L12.859,14.847 C12.582,18.176 10.262,21.405 6.73,21.405 C3.387,21.405 0.802,19.064 0.504,15.263 L0.504,13.855 Z M9.883,18 C9.202,18.302 8.42,18.504 7.562,18.504 C6.503,18.504 5.747,18.252 5.066,17.747 L8.294,15.982 L8.294,8.542 C8.622,8.617 8.95,8.642 9.303,8.642 C9.505,8.642 9.706,8.642 9.883,8.617 L9.883,18 L9.883,18 Z M27.362,13.863 L25.168,15.478 L25.168,10.408 L25.218,10.383 L27.362,13.863 L27.362,13.863 Z M21.763,10.181 L21.435,9.853 L20.754,10.509 L18.56,8.516 L16.365,10.837 L16.365,4.127 L16.315,4.102 L13.641,6.952 L13.641,18.101 L12.733,19.059 L12.733,19.16 L15.079,21.304 L17.122,19.135 L17.122,19.034 L16.365,18.328 L16.365,11.492 L17.021,10.837 L18.257,11.972 L18.257,21.001 C18.257,22.262 17.475,23.296 16.29,23.877 L16.441,24.129 C18.837,23.65 20.981,22.01 20.981,19.589 L20.981,10.938 L21.763,10.181 L21.763,10.181 Z M29.909,12.627 L27.261,8.516 L22.494,11.997 L22.494,18.328 L21.712,19.135 L22.015,19.463 L22.721,18.756 L25.949,21.329 L29.531,17.495 L29.203,17.167 L27.438,19.009 L25.168,17.218 L25.168,16.083 L29.909,12.627 L29.909,12.627 Z" id="Fill-2"></path>
                    <path d="M42.19,17.773 L41.408,18.656 L39.264,16.814 L39.264,8.163 L40.425,6.978 L42.19,8.718 L42.19,17.773 L42.19,17.773 Z M47.89,18.933 L47.865,18.958 L45.393,16.789 L45.393,8.062 L46.478,6.978 L47.89,8.39 L47.89,18.933 L47.89,18.933 Z M51.068,16.512 L51.068,7.179 L48.244,4.405 L45.318,7.457 L42.215,4.405 L39.264,7.507 L39.264,6.498 C39.264,3.875 37.65,4.304 37.65,2.64 C37.65,1.555 38.331,1.05 39.163,0.647 L38.937,0.445 C36.439,1.328 35.078,2.665 35.078,4.102 C35.078,5.389 36.061,5.465 36.061,6.952 L36.061,10.786 C34.22,10.786 33.943,12.501 33.943,13.157 C33.943,13.561 34.018,13.914 34.069,14.116 L34.321,14.116 C34.422,13.611 34.724,13.233 35.355,13.233 L36.061,13.233 L36.061,18.176 L39.693,21.304 L42.367,18.277 L45.873,21.304 L51.068,16.512 L51.068,16.512 Z" id="Fill-3"></path>
                    <path d="M56.812,18.428 L56.206,19.009 L54.668,17.647 L54.668,10.282 L54.718,10.231 L56.812,11.871 L56.812,18.428 L56.812,18.428 Z M66.699,19.664 L66.674,19.69 C66.194,19.084 65.412,18.731 64.656,18.731 C63.798,18.731 63.319,18.983 62.739,19.362 L62.714,19.311 L65.514,15.301 L66.699,15.301 L66.699,19.664 L66.699,19.664 Z M68.338,10.383 L65.892,13.914 L64.933,13.914 L64.933,10.231 L64.984,10.206 C65.463,10.711 66.069,10.938 66.573,10.938 C67.456,10.938 67.784,10.736 68.313,10.357 L68.338,10.383 L68.338,10.383 Z M61.806,18.529 L61.428,18.176 L60.696,18.933 L59.536,17.873 L59.536,11.039 L60.444,10.181 L60.066,9.853 L59.359,10.559 L56.736,8.491 L51.944,11.921 L51.944,18.555 L51.212,19.311 L51.54,19.639 L52.121,19.059 L54.668,21.304 L56.761,19.135 L56.812,19.135 L59.183,21.304 L61.806,18.529 L61.806,18.529 Z M70.003,8.794 L69.751,8.617 C69.196,9.071 68.465,9.172 67.96,9.172 C67.304,9.172 66.901,8.92 66.396,8.516 L62.21,11.467 L62.21,16.159 L64.353,16.159 L60.873,21.153 L61.225,21.279 C61.831,20.623 62.436,20.27 63.193,20.27 C64.126,20.27 64.883,20.699 65.412,21.304 L69.423,18.479 L69.423,13.081 L67.052,13.081 L70.003,8.794 L70.003,8.794 Z M79.184,10.181 L78.856,9.853 L78.175,10.509 L75.981,8.516 L73.786,10.837 L73.786,4.127 L73.736,4.102 L71.062,6.952 L71.062,18.101 L70.154,19.059 L70.154,19.16 L72.5,21.304 L74.543,19.135 L74.543,19.034 L73.786,18.328 L73.786,11.492 L74.442,10.837 L75.678,11.972 L75.678,21.001 C75.678,22.262 74.896,23.296 73.711,23.877 L73.862,24.129 C76.258,23.65 78.402,22.01 78.402,19.589 L78.402,10.938 L79.184,10.181 L79.184,10.181 Z M85.918,18.529 L85.59,18.176 L84.834,18.958 L83.774,17.975 L83.774,10.761 L84.632,9.904 L84.279,9.55 L83.598,10.257 L81.681,8.516 L79.133,11.215 L79.462,11.543 L80.142,10.887 L81.05,11.719 L81.05,18.908 L80.218,19.765 L80.546,20.093 L81.252,19.387 L83.346,21.304 L85.918,18.529 L85.918,18.529 Z M84.506,6.272 L82.437,4.38 L80.546,6.397 L82.614,8.289 L84.506,6.272 L84.506,6.272 Z" id="Fill-4"></path>
                    <path d="M104.15,22.716 C104.15,23.347 103.797,23.751 103.318,24.154 C102.662,23.574 101.93,23.145 100.922,23.145 C99.736,23.145 99.131,23.448 98.324,23.927 L98.299,23.902 L102.359,19.185 L102.359,19.563 C102.359,20.648 102.511,21.077 103.141,21.481 C103.772,21.884 104.15,22.212 104.15,22.716 L104.15,22.716 Z M102.359,18.428 L101.704,19.185 L100.215,18.025 L100.215,10.282 L100.266,10.231 L102.359,11.871 L102.359,18.428 L102.359,18.428 Z M118.602,19.437 L116.458,17.823 L116.458,10.307 L116.484,10.282 L118.602,11.946 L118.602,19.437 L118.602,19.437 Z M96.886,18.454 L96.583,18.126 L95.751,18.983 L94.767,18.05 L94.767,10.988 L95.65,10.105 L95.322,9.752 L94.591,10.484 L92.396,8.516 L90,11.064 L90,10.559 L87.705,8.516 L85.133,11.265 L85.486,11.593 L86.242,10.837 L87.276,11.77 L87.276,18.126 L86.368,19.084 L86.368,19.16 L88.714,21.304 L90.782,19.135 L90.782,19.034 L90,18.302 L90,11.719 L90.858,10.837 L92.043,11.946 L92.043,19.311 L94.238,21.304 L96.886,18.454 L96.886,18.454 Z M105.941,10.105 L105.613,9.777 L104.856,10.509 L102.284,8.491 L97.491,11.921 L97.491,18.933 L96.634,19.816 L96.962,20.143 L97.693,19.412 L99.963,21.203 L96.508,25.264 L96.76,25.465 C97.592,24.886 98.627,24.558 99.459,24.558 C100.241,24.558 100.821,24.936 101.653,25.844 C104.175,23.952 105.815,22.893 105.815,21.758 C105.815,20.774 105.083,20.825 105.083,19.513 L105.083,10.963 L105.941,10.105 L105.941,10.105 Z M112.952,18.454 L112.625,18.101 L111.792,18.958 L110.582,18.025 L110.582,10.383 L111.767,10.383 L112.65,9.071 L112.6,9.021 L110.582,9.021 L110.582,4.531 L110.531,4.481 L107.858,7.331 L107.858,9.021 L107.227,9.021 L106.344,10.332 L106.395,10.383 L107.858,10.383 L107.858,19.109 L107.076,19.917 L107.404,20.245 L108.085,19.563 L110.304,21.304 L112.952,18.454 L112.952,18.454 Z M122.134,10.383 L121.806,10.03 L121.074,10.761 L118.199,8.516 L113.734,11.719 L113.734,18.529 L112.928,19.362 L113.256,19.69 L113.961,18.983 L117.064,21.329 L121.326,18.176 L121.326,11.19 L122.134,10.383 L122.134,10.383 Z M133.963,18.428 L133.66,18.101 L132.828,18.958 L131.844,18.025 L131.844,10.963 L132.727,10.08 L132.399,9.727 L131.668,10.458 L129.473,8.491 L127.077,11.039 L127.077,10.534 L124.782,8.491 L122.209,11.24 L122.562,11.568 L123.319,10.812 L124.353,11.745 L124.353,18.101 L123.445,19.059 L123.445,19.135 L125.791,21.279 L127.859,19.109 L127.859,19.009 L127.077,18.277 L127.077,11.694 L127.935,10.812 L129.12,11.921 L129.12,19.286 L131.314,21.279 L133.963,18.428 L133.963,18.428 Z" id="Fill-5"></path>
                    <path d="M144.724,24.381 L143.993,23.7 L143.993,9.5 L144.724,8.743 L144.724,24.381 L144.724,24.381 Z M140.871,26.799 L140.789,26.799 L140.789,20.017 C139.907,20.219 138.948,20.774 138.217,21.682 L138.015,21.556 C138.191,19.614 139.15,18.176 140.789,17.621 L140.789,12.703 L140.26,12.703 C139.528,12.703 139.024,13.208 138.923,13.762 L138.62,13.762 C138.545,13.561 138.444,13.233 138.444,12.602 C138.444,11.366 139.277,10.433 140.638,10.433 L140.789,10.433 L140.789,7.709 L139.882,6.902 L139.175,7.608 L138.822,7.28 L141.622,4.405 L143.993,6.574 L143.993,9.046 L144.724,8.264 L144.724,5.364 L145.204,5.364 L145.204,7.76 L148.356,4.405 L151.206,7.003 L151.206,17.975 L146.792,21.304 C146.363,20.774 145.834,20.32 145.204,20.143 L145.204,25.39 L145.153,25.415 L143.766,24.129 L140.871,26.799 L140.871,26.799 Z M148.028,18.681 L148.003,18.706 C147.271,17.924 146.389,17.521 145.204,17.369 L145.204,8.214 L146.54,6.801 L148.028,8.163 L148.028,18.681 L148.028,18.681 Z M157.588,19.437 L155.444,17.823 L155.444,10.307 L155.469,10.282 L157.588,11.946 L157.588,19.437 L157.588,19.437 Z M166.214,19.664 L166.188,19.69 C165.709,19.084 164.927,18.731 164.171,18.731 C163.313,18.731 162.834,18.983 162.253,19.362 L162.228,19.311 L165.028,15.301 L166.214,15.301 L166.214,19.664 L166.214,19.664 Z M167.853,10.383 L165.406,13.914 L164.448,13.914 L164.448,10.231 L164.499,10.206 C164.977,10.711 165.583,10.938 166.087,10.938 C166.97,10.938 167.298,10.736 167.828,10.357 L167.853,10.383 L167.853,10.383 Z M161.119,10.383 L160.791,10.03 L160.059,10.761 L157.184,8.516 L152.719,11.719 L152.719,18.529 L151.913,19.362 L152.241,19.69 L152.946,18.983 L156.049,21.329 L160.311,18.176 L160.311,11.19 L161.119,10.383 L161.119,10.383 Z M169.517,8.794 L169.265,8.617 C168.71,9.071 167.979,9.172 167.474,9.172 C166.819,9.172 166.415,8.92 165.911,8.516 L161.724,11.467 L161.724,16.159 L163.868,16.159 L160.387,21.153 L160.74,21.279 C161.346,20.623 161.951,20.27 162.708,20.27 C163.641,20.27 164.397,20.699 164.927,21.304 L168.937,18.479 L168.937,13.081 L166.566,13.081 L169.517,8.794 L169.517,8.794 Z M176.252,18.454 L175.924,18.101 L175.092,18.958 L173.881,18.025 L173.881,10.383 L175.066,10.383 L175.949,9.071 L175.899,9.021 L173.881,9.021 L173.881,4.531 L173.83,4.481 L171.157,7.331 L171.157,9.021 L170.527,9.021 L169.644,10.332 L169.694,10.383 L171.157,10.383 L171.157,19.109 L170.375,19.917 L170.703,20.245 L171.384,19.563 L173.603,21.304 L176.252,18.454 L176.252,18.454 Z" id="Fill-6"></path>
                </g>
            </g>
        </g>
    </g>
</svg>