<?xml version="1.0" encoding="UTF-8" standalone="no"?>
<svg width="1477px" height="500px" viewBox="0 0 1477 500" version="1.1" xmlns="http://www.w3.org/2000/svg" xmlns:xlink="http://www.w3.org/1999/xlink">
    <!-- Generator: Sketch 3.8.3 (29802) - http://www.bohemiancoding.com/sketch -->
    <title>Group</title>
    <desc>Created with Sketch.</desc>
    <defs>
        <linearGradient x1="58.9170878%" y1="9.59026547%" x2="90.8103723%" y2="60.8514694%" id="linearGradient-1">
            <stop stop-color="#FF177B" offset="0%"></stop>
            <stop stop-color="#FFEC73" offset="100%"></stop>
        </linearGradient>
        <linearGradient x1="37.1029741%" y1="-44.0352456%" x2="0%" y2="101.060094%" id="linearGradient-2">
            <stop stop-color="#064AA2" offset="0%"></stop>
            <stop stop-color="#63FFD4" offset="100%"></stop>
        </linearGradient>
        <path d="M139,127 L5,0 C1.87378254,0.726186853 0,3.06462999 0,7 L0,127 L0,250 C0,253.338867 1.34597157,255.325411 3,256 L139,127 Z" id="path-3"></path>
        <path d="M6.53437056,128.785198 L83.986448,86.238085 C103.059222,75.6695888 118.195851,67.282093 118.195851,67.282093 L174.520199,36.9446714 L137.02203,0.507964851 L1.02361655,129.524017 C2.53944448,130.011528 5.21113604,129.745054 7.29548251,128.716318" id="path-5"></path>
        <linearGradient x1="78.6453125%" y1="50%" x2="2.49516972%" y2="100%" id="linearGradient-7">
            <stop stop-color="#FF4521" offset="0%"></stop>
            <stop stop-color="#8A33DB" offset="100%"></stop>
        </linearGradient>
        <linearGradient x1="0%" y1="-24.1863374%" x2="64.2244373%" y2="100%" id="linearGradient-8">
            <stop stop-color="#00A3B5" offset="0%"></stop>
            <stop stop-color="#D6FFA1" offset="100%"></stop>
        </linearGradient>
        <path d="M8.12902383,2.14687426 C5.54941065,0.765297171 2.98636664,0.370077565 0.91303491,0.92865807 L135.024287,128.113403 L172.126971,93.0020155 L116.2,62.0225581 C116.2,62.0225581 63.4870167,32.817123 31.6586078,15.1823037 L8.12902383,2.14687426 Z" id="path-9"></path>
    </defs>
    <g id="Page-1" stroke="none" stroke-width="1" fill="none" fill-rule="evenodd">
        <g id="Artboard-1" transform="translate(-461.000000, -270.000000)">
            <g id="Play-Store" transform="translate(461.000000, 270.000000)">
                <g id="Group">
                    <rect id="background" fill="#000000" x="0" y="0" width="1477" height="500" rx="60"></rect>
                    <g id="icon" transform="translate(60.000000, 178.000000)">
                        <path d="M120.179253,62.0225581 C120.179253,62.0225581 18.2738589,5.56224806 12.2887967,2.24515504 C6.29377593,-1.07193798 0.328630705,0.940232558 0.328630705,7.87325581 L0.328630705,128.404264 L0.328630705,251.385736 C0.328630705,256.575543 4.59087137,258.826783 9.79917012,255.947984 C14.9975104,253.069186 120.179253,194.785969 120.179253,194.785969 C120.179253,194.785969 134.46801,186.873586 141.612388,182.917395 C153.110334,176.550421 176.106224,163.816473 176.106224,163.816473 C176.106224,163.816473 223.558506,137.518798 229.872199,134.032364 C236.175934,130.535969 235.568465,125.744612 230.250622,122.985349 C224.922822,120.236047 176.106224,93.0020155 176.106224,93.0020155 L120.179253,62.0225581 Z" id="orange" fill="url(#linearGradient-1)"></path>
                        <g id="blue" transform="translate(0.000000, 1.000000)">
                            <mask id="mask-4" fill="white">
                                <use xlink:href="#path-3"></use>
                            </mask>
                            <use id="Clip-2" fill="url(#linearGradient-2)" xlink:href="#path-3"></use>
                            <path d="M176,92 L120,61 C119.803881,61.451092 17.9382297,4.88708221 12,2 C5.96281885,-1.75928874 0,0.256577526 0,7 L0,128 C0,127.95472 0,245.952753 0,251 C0,256.361409 4.26057841,258.616784 9,256 C14.6631589,252.848612 119.803881,194.458347 120,194 L176,163 C175.709041,163.43197 223.142817,137.085995 229,134 C235.755324,130.09034 235.148092,125.290184 230,123 C224.5066,119.7715 175.709041,92.4874489 176,92" id="Fill-1" mask="url(#mask-4)"></path>
                        </g>
                        <g id="red" transform="translate(1.983402, 127.503876)">
                            <mask id="mask-6" fill="white">
                                <use xlink:href="#path-5"></use>
                            </mask>
                            <g id="Clip-8"></g>
                            <path d="M118.016598,-65.503876 C117.820479,-65.0527839 15.9548272,-121.616794 10.0165975,-124.503876 C3.97941636,-128.263165 -1.98340249,-126.247298 -1.98340249,-119.503876 L-1.98340249,1.49612403 C-1.98340249,1.45084368 -1.98340249,119.448877 -1.98340249,124.496124 C-1.98340249,129.857533 2.27717592,132.112908 7.01659751,129.496124 C12.6797564,126.344736 117.820479,67.9544713 118.016598,67.496124 L174.016598,36.496124 C173.725639,36.928094 221.159415,10.5821191 227.016598,7.49612403 C233.771921,3.58646438 233.164689,-1.21369242 228.016598,-3.50387597 C222.523198,-6.73237581 173.725639,-34.0164271 174.016598,-34.503876 L118.016598,-65.503876 Z" id="Fill-7" fill="url(#linearGradient-7)" mask="url(#mask-6)"></path>
                        </g>
                        <g id="green" transform="translate(3.979253, 0.000000)">
                            <mask id="mask-10" fill="white">
                                <use xlink:href="#path-9"></use>
                            </mask>
                            <use id="Clip-5" fill="url(#linearGradient-8)" xlink:href="#path-9"></use>
                            <path d="M172.020747,93 L116.020747,62 C115.824628,62.451092 13.9589766,5.88708221 8.02074689,3 C1.98356574,-0.759288738 -3.97925311,1.25657753 -3.97925311,8 L-3.97925311,129 C-3.97925311,128.95472 -3.97925311,246.952753 -3.97925311,252 C-3.97925311,257.361409 0.281325302,259.616784 5.02074689,257 C10.6839058,253.848612 115.824628,195.458347 116.020747,195 L172.020747,164 C171.729788,164.43197 219.163564,138.085995 225.020747,135 C231.776071,131.09034 231.168839,126.290184 226.020747,124 C220.527347,120.7715 171.729788,93.4874489 172.020747,93 L116.927021,91.9418616" id="Fill-4" mask="url(#mask-10)"></path>
                        </g>
                    </g>
                    <g id="Google-play" transform="translate(347.000000, 201.000000)" fill="#FFFFFF">
                        <path d="M664.61527,147.869801 L653.541573,158.380368 C650.98241,159.79512 648.436969,161.437612 645.898389,162.603919 C638.207178,166.116643 630.385607,167 623.435387,167 C616.0392,167 604.444065,166.516914 592.615654,157.911085 C576.183495,146.268716 569,126.255161 569,108.815762 C569,72.7085464 598.221113,55 622.056321,55 C630.385607,55 638.941308,57.0979728 645.898389,61.5216588 C657.46608,69.216526 660.457488,79.2164027 662.117856,84.5717543 L607.68933,106.690184 L589.864383,108.084232 C595.634506,137.690492 615.545206,154.909052 637.548519,154.909052 C648.539884,154.909052 656.697645,151.29971 664.183025,147.579949 C664.183025,147.579949 665.68559,146.79321 664.61527,147.869801 L664.61527,147.869801 Z M631.359496,88.4775359 C635.727713,86.8517832 638,85.4483557 638,82.1829551 C638,72.8175081 627.656008,62 615.311047,62 C606.167636,62 589,69.295044 589,94.6262158 C589,98.5794349 589.46124,102.789717 589.69186,107 L631.359496,88.4775359 L631.359496,88.4775359 Z" id="Fill-1"></path>
                        <path d="M551.026121,146.60314 C551.026121,155.628579 552.626345,157.032995 560.210314,157.742087 C564.163004,158.210226 568.102018,158.416758 572,158.884896 L563.465471,164 L522.796525,164 C528.130605,157.032995 529.046973,156.337671 529.046973,151.69759 L529.046973,146.513643 L528.958072,8.38519016 L511,8.38519016 L528.287892,0 L561.290807,0 C554.137668,4.1719419 551.997197,6.71228276 551.08083,14.8427504 L551.026121,146.60314" id="Fill-2"></path>
                        <path d="M487.929114,66.39776 C493.220316,70.782492 504.260152,80.0888621 504.260152,97.7379249 C504.260152,114.939566 494.640406,123.048223 484.938732,130.723225 C481.962004,133.745042 478.480052,137.021545 478.480052,142.087734 C478.480052,147.229641 481.962004,150.017422 484.467644,152.096212 L492.790192,158.573501 C502.908335,167.184646 512.132095,175.079918 512.132095,191.118262 C512.132095,212.966205 491.158454,235 451.525647,235 C418.139872,235 402,218.968539 402,201.780664 C402,193.417321 406.130551,181.570973 419.757955,173.455433 C434.040786,164.651552 453.389516,163.474489 463.753443,162.786148 C460.517276,158.573501 456.823676,154.161235 456.823676,146.961188 C456.823676,143.023878 457.997981,140.676635 459.131323,137.909505 C456.612028,138.150424 454.072251,138.398227 451.764605,138.398227 C427.329494,138.398227 413.517751,120.019522 413.517751,101.909271 C413.517751,91.2262192 418.35152,79.3729875 428.278497,70.782492 C441.414332,59.8791709 457.076288,58 469.52256,58 L517,58 L502.239254,66.39776 L487.929114,66.39776 L487.929114,66.39776 Z M471.720106,169.252274 C469.813618,169 468.671102,169 466.372304,169 C464.26622,169 451.719189,169.462503 442.000918,172.784116 C436.859594,174.697197 422,180.352348 422,197.149619 C422,213.911851 438.043406,226 462.862164,226 C485.161879,226 497,215.117163 497,200.464224 C497,188.404106 489.339635,182.041185 471.720106,169.252274 L471.720106,169.252274 Z M478.235214,124.515284 C483.537729,119.169682 484,111.786026 484,107.593263 C484,90.9388646 474.163154,65 455.094494,65 C449.146159,65 442.701564,68.0124766 439.044188,72.6718653 C435.162475,77.4959451 434,83.7542109 434,89.7723019 C434,105.280724 442.959891,131 462.667573,131 C468.418763,131 474.605031,128.179663 478.235214,124.515284 L478.235214,124.515284 Z" id="Fill-3"></path>
                        <path d="M344.336863,167 C307.636483,167 288,138.048704 288,111.8352 C288,81.2065722 312.685864,55 347.798905,55 C381.741968,55 403,81.9204778 403,110.185593 C403,137.792252 381.988279,167 344.336863,167 L344.336863,167 Z M373.038446,148.065395 C378.640643,140.558479 380,131.188737 380,122.055323 C380,101.397404 370.278541,62 341.546685,62 C333.905453,62 326.209298,65.0236187 320.662024,69.9587205 C311.613378,78.1676715 310,88.4827293 310,98.6031633 C310,121.777289 321.314241,160 349.39388,160 C358.456257,160 367.704002,155.558408 373.038446,148.065395 L373.038446,148.065395 Z" id="Fill-4"></path>
                        <path d="M221.332956,167 C184.61044,167 165,138.048704 165,111.8352 C165,81.2065722 189.702994,55 224.816975,55 C258.753646,55 280,81.9204778 280,110.185593 C280,137.792252 259.006904,167 221.332956,167 L221.332956,167 Z M250.048769,148.065395 C255.612501,140.558479 257,131.188737 257,122.055323 C257,101.397404 247.246296,62 218.527819,62 C210.855363,62 203.237857,65.0236187 197.674124,69.9587205 C188.607301,78.1676715 187,88.4827293 187,98.6031633 C187,121.777289 198.367874,160 226.413208,160 C235.459425,160 244.697969,155.558408 250.048769,148.065395 L250.048769,148.065395 Z" id="Fill-5"></path>
                        <path d="M149.774985,160.080409 L118.688962,167.244878 C106.093764,169.24346 94.7835087,171 82.8067322,171 C22.8472645,171 0,126.581676 0,91.8174048 C0,49.3630858 32.3709663,10 87.8090806,10 C99.5384883,10 110.821258,11.7357931 121.100809,14.5573214 C137.392798,19.1630514 145.013134,24.8406855 149.774985,28.1670461 L131.717057,45.4281603 L124.103592,47.1432069 L129.531965,38.4365792 C122.179612,31.2098707 108.663651,17.869851 83.0128729,17.869851 C48.7179264,17.869851 22.8472645,44.1072978 22.8472645,82.4123105 C22.8472645,123.552682 52.3872315,162.251879 99.7652431,162.251879 C113.686614,162.251879 120.85344,159.437266 127.360616,156.809372 L127.360616,121.540269 L94.5361399,123.317555 L111.934418,113.912461 L158,113.912461 L152.365487,119.368799 C150.846917,120.668915 150.640776,121.111507 150.214752,122.854216 C149.987997,124.845883 149.774985,131.180491 149.774985,133.407285 L149.774985,160.080409" id="Fill-6"></path>
                        <path d="M731.702413,148.939774 L731.702413,208 L720,208 L720,57.714228 L731.702413,57.714228 L731.702413,74.8310428 C739.325778,63.7679871 753.256243,55 769.435327,55 C798.454844,55 818,77.0642684 818,111.991916 C818,146.685934 798.454844,169.21059 769.435327,169.21059 C754.161175,169.21059 740.47751,161.315279 731.702413,148.939774 L731.702413,148.939774 Z M806,112.892369 C806,86.2901677 792.258322,66 767.892133,66 C752.760461,66 738.289381,77.9991135 732,88.4636182 L732,137.078082 C738.289381,147.563419 752.760461,160 767.892133,160 C792.258322,160 806,139.536234 806,112.892369 L806,112.892369 Z" id="Fill-7"></path>
                        <polygon id="Fill-8" points="834 16 846 16 846 167 834 167"></polygon>
                        <path d="M976.463271,197.601096 C978.96572,198.721396 983.237023,199.408697 985.945152,199.408697 C993.10284,199.408697 998.087169,196.473923 1002.56415,186.109429 L1011.0999,166.720677 L965,57 L978.053869,57 L1017.59941,152.081173 L1056.76102,57 L1070,57 L1013.77375,189.74525 C1007.93928,203.422533 998.75906,210 986.150833,210 C982.366308,210 977.375122,209.326445 974.454456,208.426081 L976.463271,197.601096" id="Fill-9"></path>
                        <path d="M943.4375,166.851012 C942.651468,163.057462 942.058496,159.713056 941.62411,156.921445 C941.265569,154.136744 941.058719,151.289853 941.058719,148.394593 C937.025133,154.330222 931.309164,159.270821 924.00734,163.16111 C916.698621,167.07904 909.755338,169 900.233319,169 C888.766904,169 879.865436,166.173839 873.515125,160.438599 C867.185498,154.710268 864,146.950418 864,137.13141 C864,127.326221 868.612767,119.365984 877.810721,113.278337 C887.008674,107.16305 898.895685,104.122682 913.609653,104.122682 L941.058719,104.122682 L941.058719,90.5308522 C941.058719,82.7019033 938.397242,76.545157 933.081183,72.0813432 C927.74444,67.6106195 920.25645,65.3510729 910.548265,65.3510729 C901.674377,65.3510729 894.475979,67.4171415 888.99444,71.4387198 C883.561165,75.5432174 880.823843,80.6289247 880.823843,86.7580313 L868.778247,86.7580313 L868.530027,86.1706874 C868.095641,77.9064129 871.867215,70.6578979 879.886121,64.3975027 C887.870552,58.1440175 898.330294,55 911.203292,55 C924.03492,55 934.418817,58.095648 942.244662,64.273124 C950.063612,70.3884107 953.986877,79.2262092 953.986877,90.7796096 L953.986877,144.746151 C953.986877,148.622621 954.173043,152.367802 954.655694,156.016244 C955.152135,159.671597 955.945062,163.320039 957,166.851012 L943.4375,166.851012 L943.4375,166.851012 Z M901.6493,159 C911.638536,159 918.817008,156.749653 926.153929,152.297577 C933.442626,147.873283 938.402799,142.101559 941,135.11437 L941,114 L913.443488,114 C902.9169,114 894.202153,116.347585 887.34747,121.084427 C880.47901,125.807378 877,131.523538 877,138.170397 C877,144.442198 879.204521,149.456861 883.586006,153.256058 C887.98127,157.096929 893.98859,159 901.6493,159 L901.6493,159 Z" id="Fill-10"></path>
                    </g>
                    <g id="Get-it-on" transform="translate(343.000000, 79.000000)" fill="#FFFFFF">
                        <path d="M0.0424710425,36.3110072 C0.0424710425,14.770941 17.2432432,0.915057915 38.6322691,0.915057915 C52.9673941,0.915057915 62.3427449,7.27902272 68.1842566,15.0721558 L57.7136224,20.7183321 C53.7458031,15.584862 46.7952307,11.592163 38.6322691,11.592163 C24.0835984,11.592163 13.2754239,21.8462856 13.2754239,36.3110072 C13.2754239,50.5642375 24.0835984,61.0298513 38.6322691,61.0298513 C46.1339275,61.0298513 52.7469597,57.8510733 56.0534758,54.8773778 L56.0534758,44.3092227 L34.0031466,44.3092227 L34.0031466,33.7410677 L68.8455598,33.7410677 L68.8455598,59.2866505 C61.6814417,66.7785688 51.314136,71.8030888 38.6322691,71.8030888 C17.2432432,71.8030888 0.0424710425,57.7549409 0.0424710425,36.3110072" id="Fill-1"></path>
                        <polyline id="Fill-2" points="85.5250965 70.7606178 85.5250965 1.95752896 136.606178 1.95752896 136.606178 12.5902064 98.6043672 12.5902064 98.6043672 30.3242234 135.824075 30.3242234 135.824075 40.9504568 98.6043672 40.9504568 98.6043672 60.1343844 136.606178 60.1343844 136.606178 70.7606178 85.5250965 70.7606178"></polyline>
                        <polyline id="Fill-3" points="171.344753 70.7606178 171.344753 12.5902064 149.11583 12.5902064 149.11583 1.95752896 206.451737 1.95752896 206.451737 12.5902064 184.222815 12.5902064 184.222815 70.7606178 171.344753 70.7606178"></polyline>
                        <polygon id="Fill-4" points="252.320463 1.95752896 264.830116 1.95752896 264.830116 70.7606178 252.320463 70.7606178"></polygon>
                        <polyline id="Fill-5" points="300.618038 70.7606178 300.618038 12.5902064 278.382239 12.5902064 278.382239 1.95752896 335.718147 1.95752896 335.718147 12.5902064 313.496099 12.5902064 313.496099 70.7606178 300.618038 70.7606178"></polyline>
                        <path d="M378.459459,36.3622824 C378.459459,15.9141822 394.192589,0.915057915 416.513138,0.915057915 C438.708213,0.915057915 454.559846,15.9141822 454.559846,36.3622824 C454.559846,56.8039645 438.708213,71.8030888 416.513138,71.8030888 C394.192589,71.8030888 378.459459,56.8039645 378.459459,36.3622824 L378.459459,36.3622824 Z M441.007722,35.8378378 C441.007722,21.807183 431.367775,11.3397683 416.513115,11.3397683 C401.547651,11.3397683 392.011583,21.807183 392.011583,35.8378378 C392.011583,49.7605157 401.547651,60.3359073 416.513115,60.3359073 C431.367775,60.3359073 441.007722,49.7605157 441.007722,35.8378378 L441.007722,35.8378378 Z" id="Fill-6"></path>
                        <polyline id="Fill-7" points="520.311577 70.7606178 482.021048 21.5603196 482.021048 70.7606178 469.15444 70.7606178 469.15444 1.95752896 482.357834 1.95752896 519.871693 49.6176999 519.871693 1.95752896 532.745174 1.95752896 532.745174 70.7606178 520.311577 70.7606178"></polyline>
                    </g>
                </g>
            </g>
        </g>
    </g>
</svg>